<svg id="Layer_1" version="1.1" viewBox="0 0 640 480" xml:space="preserve" xmlns="http://www.w3.org/2000/svg">
<style id="style1" type="text/css">
	.st0{fill:#FA6149;}
	.st1{fill:#F1634C;}
	.st2{fill:#F0624B;}
</style>


<g id="g38" transform="matrix(.4291 0 0 .4291 107 28.62)" style="stroke-width:2.33"><g id="g1" style="stroke-width:2.33">
	<path id="path1" class="st0" d="m699.9 375.6c4.9-11 6.7-22.5 4.5-29.8s-4.8-11-3.5-16.7 21.4-11.5 29.8-13.8c13.7-3.7 25.7-6.5 36.4-7.2 5-0.3 6.5 2.4 3.2 4.9-5.2 4-16.3 12.7-28.6 20.8-18.6 12.3-15.1 28.5-41.8 41.8zm-19.9-18.4c-1.4 11.3-14.9 33.9-14.9 33.9s-1-3.8-1.6-6-2.3-2.6-2.3-2.6-5.1 20.1-11.4 25c-13.9 10.7-22.7 6.4-36.5 36.6-2.9 6.3-0.5 19.7-2.5 22.7 1.1 3.3 2.2 9.2 0.1 17.3-6.8-2.1-19.7-3.3-19.7-3.3s9.8 4.9 16.1 8.1c-0.6 3.3-9.8 22.9-12.2 25-10.3-3.9-22.9-6.4-22.9-6.4s9 5.6 18.7 11.3c-1.5 3.7-13.8 18.7-16.7 20.3-8.6-7.5-20.3-11.7-20.3-11.7s6.2 6.4 17.3 16.2c-12.1 9.4-27 6.5-38.4 4.2-1.2-0.2-5.1-7.9-5.1-7.9s-3.3 7.6-11.3 2.1c-5-3.5-9.7-10.1-9.4-16.9 0.3-7.3 5.9-16.7 23.6-26.3 10.7-5.8 15.8-18.6 15.1-33.5 0.7-4.5 4.1-27.8 6.1-38.5 2.6-13.2 8.7-38.9 20.1-54.8 9.5-13.1 23.3-19.4 47.6-27.4 27-8.9 43.6-9.4 57.8-10.9-0.1-0.2 4.5 8.4 2.7 23.5zm-57.8 23.3c6.7-7.1 9.1-15.8 9.1-15.8s-22.2 4.7-31.3 6.1c-15.9 2.5-17.7 6.5-23.2 14-4.3 5.8-4.8 10.1-3.1 19.4 0.5 2.8 2.5 4.2 4.1 7.3 1.9 3.5 2.3 10 3.5 9.9 1.7-0.2 8.3-6.9 15.6-9 12.7-3.5 15.7-21.8 25.3-31.9zm-29.6 30.7c-6.3 0-11.3-5.8-11.3-12.9s5.2-11.6 11.3-12.9c11.3-2.6 10 4.8 11.3 12.9 1.2 7-5 12.9-11.3 12.9zm-1.2-9.6c0-0.5-0.4-1-1-1-0.5 0-1 0.4-1 1 0 0.5 0.4 1 1 1s1-0.4 1-1zm4.2 0.2c0-0.9-0.5-1.5-1.1-1.5s-1.1 0.7-1.1 1.5c0 0.9 0.5 1.5 1.1 1.5s1.1-0.7 1.1-1.5zm0-4.5c0-1.9-1.2-3.4-2.7-3.4s-2.7 1.5-2.7 3.4 1.2 3.4 2.7 3.4c1.5-0.1 2.7-1.6 2.7-3.4zm-293.8-21.7c-4.9-11-6.7-22.5-4.5-29.8 2.3-7.4 4.8-11 3.5-16.7s-21.4-11.5-29.8-13.8c-13.7-3.7-25.7-6.5-36.4-7.2-5-0.3-6.5 2.4-3.2 4.9 5.2 4 16.3 12.7 28.6 20.8 18.6 12.3 15.2 28.5 41.8 41.8zm22.8-42.1c14.2 1.5 30.8 2 57.8 10.9 24.3 8 38.1 14.3 47.6 27.4 11.4 15.9 17.6 41.6 20.1 54.8 2.1 10.7 5.4 34.1 6.1 38.5-0.7 14.9 4.3 27.7 15.1 33.5 17.7 9.6 23.3 19 23.6 26.3 0.3 6.9-4.4 13.5-9.4 16.9-8 5.5-11.3-2.1-11.3-2.1s-3.9 7.6-5.1 7.9c-11.3 2.3-26.2 5.2-38.4-4.2 11.1-9.8 17.3-16.2 17.3-16.2s-11.7 4.2-20.3 11.7c-3-1.6-15.3-16.6-16.7-20.3 9.8-5.6 18.7-11.3 18.7-11.3s-12.6 2.5-22.9 6.4c-2.4-2-11.6-21.6-12.2-25 6.2-3.2 16.1-8.1 16.1-8.1s-12.9 1.2-19.7 3.3c-2.1-8.1-1-14 0.1-17.3-2-2.9 0.4-16.3-2.5-22.7-13.8-30.2-22.6-25.9-36.5-36.6-6.3-4.9-11.4-25-11.4-25s-1.6 0.4-2.3 2.6-1.6 6-1.6 6-13.5-22.6-14.9-33.9c-2-14.9 2.7-23.5 2.7-23.5zm80.2 78.9c7.3 2.1 13.9 8.8 15.6 9 1.2 0.1 1.6-6.4 3.5-9.9 1.7-3.1 3.6-4.5 4.1-7.3 1.7-9.4 1.2-13.6-3.1-19.4-5.5-7.5-7.4-11.6-23.2-14-9.1-1.4-31.3-6.1-31.3-6.1s2.4 8.8 9.1 15.8c9.7 10.1 12.7 28.4 25.3 31.9zm-7-14.2c1.3-8.1 0-15.5 11.3-12.9 6.1 1.4 11.3 5.8 11.3 12.9s-5.1 12.9-11.3 12.9c-6.2 0.1-12.4-5.8-11.3-12.9zm13.5 4.4c0.5 0 1-0.4 1-1 0-0.5-0.4-1-1-1-0.5 0-1 0.4-1 1s0.5 1 1 1zm-4 0.7c0.6 0 1.1-0.7 1.1-1.5 0-0.9-0.5-1.5-1.1-1.5s-1.1 0.7-1.1 1.5c-0.1 0.8 0.4 1.5 1.1 1.5zm1.5-2.7c1.5 0 2.7-1.5 2.7-3.4s-1.2-3.4-2.7-3.4-2.7 1.5-2.7 3.4 1.2 3.4 2.7 3.4zm126.8 66.1c-3-4.8-9.1-5.9-18-6.7-8.2-0.7-16.7-0.6-16.7-0.6s-8.5 0-16.7 0.6c-9 0.7-15 1.8-18 6.7-3.5 5.5-5.1 17.3 14.7 30.4 1 0.7 1.6-2.1-1.4-5-4.7-4.5-7.1-19.1-4.2-18.3 7.1 2 14.7 14.7 11.7 24.1-0.8 2.5 5 7 7.5 8 4 1.6 6.4 1.6 6.4 1.6s2.4 0 6.4-1.6c2.5-1 8.3-5.5 7.5-8-3-9.4 4.6-22.1 11.7-24.1 2.9-0.8 0.5 13.8-4.2 18.3-3 2.9-2.4 5.6-1.4 5 19.8-13.1 18.2-24.9 14.7-30.4zm226.3-125.1c1.3 12.9-1.3 25.2-3.7 27-0.1-4.4-1.2-7.7-2.5-10.2-1.9-3.7-4.3-5.3-4.3-5.3s2.6 11-0.4 43.9c-1.9 20.8-14.6 41.8-14.6 41.8s0.4-8.5-3-18.9c-2.8-8.8-9.4-14.5-9.4-14.5s5.3 18.3 6 26.1c5.6 58.9-40.6 89.9-40.6 89.9s1.1-7.1-1.4-19.9c-1.9-9.9-8.7-15.6-8.7-15.6 3.4 7.1 5.7 23.5 0.7 33.8-4.3 9-9.9 12.9-19.3 22.2-10.3 10.3-33.7 20-33.7 20s1.4-13.4-0.5-16c0.2 2.7-6.2 18.4-13.9 22.1-7.1 3.4-17.4 11.1-22.4 19.9 0.9-8.5 1.7-16.1 3-22.9-10.6 15.1-27.6 37.4-44.8 48.5 1.2-10.4 3.8-16.3 0-23.7-2.1 19.3-23.8 37.8-23.8 37.8s4.6-20.9 2.4-31.5c-15.3 42-26.2 49.6-26.2 49.6s-10.8-7.7-26.1-49.7c-2.2 10.6 2.4 31.5 2.4 31.5s-21.7-18.5-23.8-37.8c-3.8 7.4-1.2 13.3 0 23.7-17.2-11.1-34.2-33.4-44.8-48.5 1.3 6.8 2.1 14.5 3 22.9-4.9-8.8-15.2-16.5-22.4-19.9-7.8-3.7-14.1-19.4-13.9-22.1-1.9 2.6-0.5 16-0.5 16s-23.4-9.7-33.7-20c-9.4-9.3-15-13.2-19.3-22.2-4.9-10.4-2.7-26.7 0.7-33.8 0 0-6.8 5.7-8.7 15.6-2.5 12.8-1.4 19.9-1.4 19.9s-46.2-31-40.6-89.9c0.7-7.8 6-26.1 6-26.1s-6.5 5.8-9.4 14.5c-3.4 10.4-3 18.9-3 18.9s-12.8-21-14.6-41.8c-3-32.9-0.4-43.9-0.4-43.9s-2.4 1.6-4.3 5.3c-1.3 2.6-2.4 5.9-2.5 10.2-2.4-1.8-5.1-14.1-3.7-27 1-9.7 4.1-11.5 4.1-11.5s15.4 8.3 23.1 22.2c15.1 27.5 38.2 32.7 44.7 34.8 0.8-5.9-10.3-25.1-7.8-38.7 2.2-11.9 9.4-12.5 3.2-23.6-3.8-6.7-19.4-12.1-33.8-15.8-3.6-0.8-10.6-2.3-12.9-2.9-8.9-2-14.5-2.3-18.9-7.9-4-5-3-10.1-3-10.1s8.7 3.7 17.8-2.2c11.7-7.5-2.5-20.2 17.6-38.2 12.4-11.1 28.7-8.8 28.7-8.8s-9.9-6.5-21.4-5.9c-10.7 0.5-18.8 2.6-30.3 16.6 6.1-28.2 19.8-38.2 34.1-45.8 13.3-7.1 34.7-9.3 49.1-8.1 0 0-5.4-7.2-15.1-10.3-13.2-4.3-21.8-3.1-28.4-0.7 4.9-9.5 22.6-18.2 46.9-19.7 28.7-1.8 52.8 8.3 52.8 8.3s1.6-4.9-8-10.7c-12-7.2-27.6-8.3-34-6.1 4.2-5.4 22.2-14.4 54.7-9.4 20 3.1 28.7 6.7 28.7 6.7s-0.3-5.6-5.1-9.4c-4.5-3.6-10.3-5.3-15.3-6.1 3.2-2.4 21.8-4.3 39.9-5.6 22.8-1.6 49.5-1.7 49.5-1.7s26.7 0 49.5 1.7c18.1 1.3 36.7 3.2 39.9 5.6-5 0.8-10.7 2.5-15.2 6.1-4.8 3.8-5.1 9.4-5.1 9.4s8.7-3.6 28.7-6.7c32.6-5.1 50.5 4 54.7 9.4-6.5-2.2-22-1.1-34 6.1-9.6 5.8-8 10.7-8 10.7s24.1-10.1 52.8-8.3c24.2 1.5 42 10.2 46.9 19.7-6.7-2.4-15.3-3.6-28.4 0.7-9.7 3.2-15.1 10.3-15.1 10.3 14.4-1.2 35.8 1 49.1 8.1 14.3 7.6 28 17.6 34.1 45.8-11.5-13.9-19.6-16.1-30.3-16.6-11.5-0.5-21.4 5.9-21.4 5.9s16.3-2.3 28.7 8.8c20.1 18 5.9 30.6 17.6 38.2 9.1 5.9 17.8 2.2 17.8 2.2s1 5.1-3 10.1c-4.4 5.5-10 5.9-18.9 7.9-2.3 0.5-9.4 2.1-12.9 2.9-14.4 3.7-30 9-33.8 15.8-6.3 11.2 1 11.8 3.2 23.6 2.5 13.6-8.7 32.8-7.8 38.7 6.5-2.1 29.6-7.3 44.7-34.8 7.7-13.9 23.1-22.2 23.1-22.2s3.3 1.9 4.3 11.6zm-225.1-75.8h0.6c2.1-8.8 3.8-17.4 5.7-26 2-8.5 3.2-17.3 5.9-25.6 2.5-8.4 6.3-16.2 11.2-23.6 4.8-7.3 10.6-14.2 17.3-20l-0.3-0.5c-7.3 5.3-13.6 11.7-19.3 18.8-5.5 7.2-10.1 15.2-13.2 23.7-3.2 8.5-6 17.2-7.2 26.1-1.2 9-1.8 18-0.7 27.1zm-17.4 125.7 0.6 0.1c3.8-16.5 8.1-32.8 13.3-48.7s10.8-31.7 18.5-46.6c7.9-14.7 18.3-28 30.2-39.8 11.8-11.9 25-22.7 39.2-31.8l-0.3-0.5c-14.7 8.4-28.4 18.7-40.9 30.2-12.5 11.6-23.6 24.8-32.2 39.7-8.4 14.9-15.4 30.7-20 47.1-2.3 8.2-4.3 16.5-5.6 24.9-1.5 8.4-2.5 16.9-2.8 25.4zm-95.1-220.9c6.7 5.8 12.4 12.7 17.3 20s8.7 15.2 11.2 23.6c2.6 8.4 3.9 17.1 5.9 25.6 1.9 8.6 3.6 17.3 5.7 26h0.6c1.1-9 0.5-18.1-0.6-27-1.2-9-4-17.6-7.2-26.1-3.1-8.6-7.7-16.6-13.2-23.7-5.6-7.1-12-13.5-19.3-18.8zm-43.7 54.1c14.2 9.1 27.4 19.9 39.2 31.8 11.9 11.8 22.3 25.2 30.2 39.8 7.7 14.9 13.3 30.7 18.5 46.6s9.6 32.2 13.3 48.7l0.6-0.1c-0.3-8.5-1.3-17-2.7-25.4s-3.4-16.7-5.6-24.9c-4.6-16.5-11.6-32.2-20-47.1-8.7-14.9-19.8-28.1-32.2-39.7-12.5-11.5-26.2-21.7-40.9-30.2zm-62.2 43.8c10.8 2.5 21.4 6.3 31 11.7 9.7 5.2 17.8 12.7 26.1 20.1 8.2 7.4 16.1 15.3 24 23.4l0.5-0.3c-2.7-5-5.8-9.8-9.3-14.3-3.4-4.6-7.2-8.9-11.2-12.9-8-8.2-17.6-14.9-28-19.9-10.3-5.2-21.3-8.5-32.5-10.4-11.2-1.8-22.6-2.4-33.9-1.2l0.1 0.6c11.1-0.7 22.3 0.7 33.2 3.2zm204.3 301c-3.7 1.1-7.3 1.1-10.9 1.3-3.6 0.1-7.2 0.1-10.9 0-3.6 0-7.2 0.1-10.9 0-3.6-0.2-7.2-0.2-10.9-1.3 1.2 1.6 3 2.7 4.7 3.6 1.8 0.8 3.6 1.6 5.5 2 3.8 1 7.7 1.4 11.5 1.4s7.7-0.4 11.5-1.4c1.9-0.5 3.8-1.2 5.5-2 1.9-0.9 3.7-2 4.9-3.6zm160.1-242.7c-16.3 0.2-25.3 1.1-42.3 4.3-25.2 4.7-35.2 9.3-53.9 17.7-17.7 7.9-29.1 22.1-34.3 42.8-0.9 3.7-1.9 7.8-2.8 12.1 0 0.1 0 0.2-0.1 0.3-0.2 0.9-0.4 1.9-0.6 2.8 0 0.2-0.1 0.5-0.1 0.7-0.2 0.9-0.4 1.8-0.6 2.6 0 0.2-0.1 0.3-0.1 0.5-0.2 1.1-0.4 2.1-0.7 3.2 0 0.1-0.1 0.3-0.1 0.4-0.2 1-0.4 1.9-0.6 2.9-4.3 21.1-8 42.4-8 42.4s-1.9-2.2-4.9-3.2c2.9-19.7-0.6-34.8-0.6-34.8s-2.5 30.7-4.4 33.6c-3.5-0.6-5.4-0.4-8.7-0.7-3.8-0.3-6.3-0.2-9.6-0.4 0.4-4.7-1.4-8.3-1.4-8.3s-1.5 8.2-2.1 8.2c-2.9 0.1-5.9-0.1-5.9-0.1s-3.1 0.1-5.9 0.1c-0.6 0-2.1-8.2-2.1-8.2s-1.9 3.5-1.4 8.3c-3.3 0.2-5.8 0.2-9.6 0.4-3.4 0.2-5.3 0-8.7 0.7-1.9-2.9-4.4-33.6-4.4-33.6s-3.5 15.1-0.6 34.8c-3 1-4.9 3.2-4.9 3.2s-3.7-21.3-8-42.4c-0.2-1-0.4-2-0.6-2.9 0-0.1-0.1-0.3-0.1-0.4-0.2-1.1-0.4-2.1-0.7-3.2 0-0.2-0.1-0.3-0.1-0.5-0.2-0.9-0.4-1.8-0.6-2.6 0-0.2-0.1-0.5-0.1-0.7-0.2-0.9-0.4-1.9-0.6-2.8 0-0.1 0-0.2-0.1-0.3-1-4.3-1.9-8.5-2.8-12.1-5.2-20.7-16.7-34.9-34.3-42.8-18.7-8.4-28.7-13-53.9-17.7-17-3.1-26-4-42.3-4.3-9 22.5-4.2 44.1 10.6 66.2 6.3 9.4 8.3 18.3 16.3 27.2 1.6 1.7 16.2 6.1 19.1 8.7 2.8 2.6 18.4 40 17.2 52 0.4 1.6 0.9 3.4 1.4 5.2-4 1.1-12 3.5-19.9 6.1-19 6.4-37.4 15.5-36.5 15.7 0 0 22.3-6.2 35.5-10.3 10.1-3.1 18.2-4.9 22.6-5.8 2.5 8.1 5.9 17.2 10.3 25.7-1.9 0.8-4.2 1.7-7.2 3.1-12.9 5.7-31.3 18.2-31.3 18.2s15.2-6 33.1-12.2c3.5-1.2 6.4-2.2 8.8-2.9 2.2 3.6 4.5 7 7.1 10 2.5 2.9 6.2 7.6 11.4 12.7-1.5 1-3 2-4 2.8-4.2 3.2-16.9 15.3-16.9 15.3s13-7.1 17.9-10.1c2.5-1.5 4.9-3.1 6.9-4.4 5.7 4.9 12.9 10 22.2 14 11.8 5.2 20.2-3.5 30.9-7.6 11.2-4.3 19.8-7.5 19.8-7.5l6.8-0.7 6.8 0.7s8.6 3.2 19.8 7.5c10.6 4.1 19 12.7 30.9 7.6 9.3-4.1 16.5-9.1 22.2-14 2.1 1.3 4.5 2.9 6.9 4.4 4.9 3 17.9 10.1 17.9 10.1s-12.8-12.1-16.9-15.3c-1-0.8-2.5-1.8-4-2.8 5.2-5.1 8.9-9.8 11.4-12.7 2.6-3 4.9-6.4 7.1-10 2.4 0.8 5.3 1.7 8.8 2.9 17.9 6.2 33.1 12.2 33.1 12.2s-18.4-12.6-31.3-18.2c-3-1.3-5.3-2.3-7.2-3.1 4.4-8.5 7.8-17.7 10.3-25.7 4.4 0.8 12.5 2.6 22.6 5.8 13.2 4.1 35.5 10.3 35.5 10.3 0.9-0.2-17.5-9.3-36.5-15.7-7.9-2.7-15.9-5-19.9-6.1 0.5-1.8 1-3.6 1.4-5.2-1.2-12 14.3-49.5 17.2-52 2.9-2.6 17.5-7 19.1-8.7 8-8.9 10-17.8 16.3-27.2 14.2-22.1 19-43.6 10-66.2zm33.8-61.8 0.1-0.6c-11.3-1.2-22.6-0.6-33.9 1.2-11.2 2-22.2 5.3-32.5 10.4s-20 11.7-28 19.9c-4 4.1-7.8 8.4-11.2 12.9-3.5 4.5-6.6 9.3-9.3 14.3l0.5 0.3c7.9-8.1 15.7-16 24-23.4 8.3-7.3 16.4-14.8 26.1-20.1 9.6-5.4 20.1-9.2 31-11.7 10.8-2.2 22-3.6 33.2-3.2z" style="stroke-width:2.33"/>
</g><g id="g13" style="stroke-width:2.33">
	<path id="path2" class="st1" d="m115.2 810.8c-6.7 0-12-1.4-15.9-4.2s-6.7-6.8-8.4-12-2.5-11.2-2.5-18v-33.1c0-7.1 0.9-13.2 2.6-18.3s4.7-9.1 9-11.8c4.3-2.8 10.1-4.1 17.4-4.1 7.1 0 12.7 1.2 16.8 3.5 4.1 2.4 7.1 5.7 8.8 10 1.8 4.3 2.7 9.4 2.7 15.4v5.7h-19.6v-7c0-2.6-0.2-4.9-0.5-6.9s-1.1-3.6-2.3-4.7-3.1-1.7-5.7-1.7c-2.7 0-4.6 0.7-5.9 2.1-1.2 1.4-2 3.2-2.3 5.3-0.3 2.2-0.5 4.5-0.5 6.9v43.8c0 2.8 0.2 5.2 0.7 7.4s1.4 3.9 2.7 5.1 3.3 1.8 5.8 1.8 4.5-0.7 5.9-2 2.3-3.1 2.9-5.3c0.5-2.2 0.8-4.8 0.8-7.6v-10.5h-9.6v-12.2h27.9v50.8h-13.2l-1.2-8.9c-1.3 3-3.3 5.5-5.9 7.4-2.6 2.1-6.1 3.1-10.5 3.1z" style="stroke-width:2.33"/>
	<path id="path3" class="st1" d="m187.4 810.6c-7.2 0-13-1.3-17.2-3.9s-7.3-6.3-9.1-11.2c-1.8-4.8-2.7-10.6-2.7-17.4v-36.9c0-6.8 0.9-12.5 2.7-17.3s4.9-8.5 9.1-11 10-3.8 17.2-3.8c7.3 0 13.1 1.3 17.4 3.8s7.3 6.2 9.2 11c1.8 4.8 2.7 10.5 2.7 17.3v36.9c0 6.8-0.9 12.6-2.7 17.4s-4.9 8.6-9.2 11.2-10.1 3.9-17.4 3.9zm0-14.5c2.6 0 4.5-0.6 5.7-1.8s2-2.8 2.4-4.8 0.6-4.1 0.6-6.4v-46.7c0-2.3-0.2-4.4-0.6-6.3-0.4-2-1.2-3.5-2.4-4.7s-3.1-1.8-5.7-1.8c-2.4 0-4.3 0.6-5.5 1.8s-2 2.7-2.4 4.7-0.6 4.1-0.6 6.3v46.7c0 2.3 0.2 4.4 0.5 6.4 0.4 2 1.2 3.6 2.4 4.8s3 1.8 5.6 1.8z" style="stroke-width:2.33"/>
	<path id="path4" class="st1" d="m230.1 809.3v-98.8h24.2c8.4 0 14.9 1.1 19.6 3.2 4.7 2.2 8 5.5 9.9 10.1 2 4.6 2.9 10.5 2.9 17.6v36c0 7.3-1 13.3-2.9 18.1-2 4.7-5.2 8.2-9.8 10.4s-11 3.4-19.2 3.4zm20.1-14h4.3c3.7 0 6.4-0.6 8-1.8s2.6-2.9 3-5.2 0.6-5.2 0.6-8.6v-40.8c0-3.4-0.3-6.2-0.8-8.2-0.5-2.1-1.6-3.6-3.2-4.6s-4.2-1.5-7.7-1.5h-4.1v70.7z" style="stroke-width:2.33"/>
	<path id="path5" class="st1" d="m327.6 810.6c-7.2 0-13-1.3-17.2-3.9s-7.3-6.3-9.1-11.2c-1.8-4.8-2.7-10.6-2.7-17.4v-36.9c0-6.8 0.9-12.5 2.7-17.3s4.9-8.5 9.1-11 10-3.8 17.2-3.8c7.3 0 13.1 1.3 17.4 3.8s7.3 6.2 9.2 11c1.8 4.8 2.7 10.5 2.7 17.3v36.9c0 6.8-0.9 12.6-2.7 17.4s-4.9 8.6-9.2 11.2-10.1 3.9-17.4 3.9zm0-14.5c2.6 0 4.5-0.6 5.7-1.8s2-2.8 2.4-4.8 0.6-4.1 0.6-6.4v-46.7c0-2.3-0.2-4.4-0.6-6.3-0.4-2-1.2-3.5-2.4-4.7s-3.1-1.8-5.7-1.8c-2.4 0-4.3 0.6-5.5 1.8s-2 2.7-2.4 4.7-0.6 4.1-0.6 6.3v46.7c0 2.3 0.2 4.4 0.5 6.4 0.4 2 1.2 3.6 2.4 4.8s3.1 1.8 5.6 1.8z" style="stroke-width:2.33"/>
	<path id="path6" class="st1" d="m378.8 809.3v-83.8h-15.3v-15h50.5v15h-15v83.8z" style="stroke-width:2.33"/>
	<path id="path7" class="st1" d="m462.4 809.3-12.8-98.8h17.1l6.8 60.4 8.7-60.3h13.5l9 60.2 6.8-60.3h16.8l-12.7 98.8h-17.1l-9.6-62.6-9.2 62.6z" style="stroke-width:2.33"/>
	<path id="path8" class="st1" d="m539.3 809.3v-98.8h20v98.8z" style="stroke-width:2.33"/>
	<path id="path9" class="st1" d="m574.5 809.3v-98.8h20.1v85.2h23.2v13.7h-43.3z" style="stroke-width:2.33"/>
	<path id="path10" class="st1" d="m626.6 809.3v-98.8h24.2c8.4 0 14.9 1.1 19.6 3.2 4.7 2.2 8 5.5 9.9 10.1 2 4.6 2.9 10.5 2.9 17.6v36c0 7.3-1 13.3-2.9 18.1-2 4.7-5.2 8.2-9.8 10.4s-11 3.4-19.2 3.4zm20.1-14h4.3c3.7 0 6.4-0.6 8-1.8s2.6-2.9 3-5.2 0.6-5.2 0.6-8.6v-40.8c0-3.4-0.3-6.2-0.8-8.2-0.5-2.1-1.6-3.6-3.2-4.6s-4.2-1.5-7.7-1.5h-4.1v70.7z" style="stroke-width:2.33"/>
	<path id="path11" class="st1" d="m721 811.9v-14.2c2.4 0 4.4-0.1 6-0.4s2.9-0.8 3.8-1.6 1.5-1.9 2-3.4c0.4-1.5 0.6-3.4 0.6-5.7v-76.2h20.1v77c0 5.5-0.7 10-2 13.6s-3.6 6.3-6.9 8.1-7.9 2.7-13.9 2.7h-9.7z" style="stroke-width:2.33"/>
	<path id="path12" class="st1" d="m763.5 809.3 19.2-98.8h22.3l19 98.8h-18.7l-3.5-21.7h-15.6l-3.8 21.7zm24.5-34h11.8l-6-39.9z" style="stroke-width:2.33"/>
	<path id="path13" class="st1" d="m833.7 809.3 1.7-98.8h21.4l12.2 62.4 13.1-62.4h20.6l1.7 98.8h-14.6l-1.6-67-12.6 67h-12.6l-13.2-67.5-1.3 67.5z" style="stroke-width:2.33"/>
</g><g id="g37" style="stroke-width:2.33">
	<path id="path14" class="st2" d="m155.6 863.4c0.9 0 1.6-0.1 2.3-0.4s1.2-0.7 1.7-1.2 0.8-1.1 1.1-1.9c0.2-0.7 0.4-1.5 0.4-2.4v-12.6h2.8v12.6c0 1.2-0.2 2.3-0.6 3.3s-0.9 1.9-1.6 2.7c-0.7 0.7-1.6 1.3-2.6 1.8-1 0.4-2.2 0.6-3.5 0.6s-2.4-0.2-3.5-0.6c-1-0.4-1.9-1-2.6-1.8-0.7-0.7-1.3-1.6-1.6-2.7-0.4-1-0.6-2.1-0.6-3.3v-12.6h2.8v12.6c0 0.9 0.1 1.7 0.4 2.4 0.2 0.7 0.6 1.3 1.1 1.9 0.5 0.5 1 0.9 1.7 1.2 0.6 0.3 1.4 0.4 2.3 0.4z" style="stroke-width:2.33"/>
	<path id="path15" class="st2" d="m182.3 845c0.1 0.1 0.3 0.2 0.4 0.4l12 15.7c0-0.3 0-0.5-0.1-0.7v-0.7-14.7h2.5v20.8h-1.4c-0.2 0-0.4 0-0.6-0.1-0.1-0.1-0.3-0.2-0.4-0.4l-12-15.6v0.7 0.6 14.8h-2.5v-20.8h1.4c0.4-0.1 0.5-0.1 0.7 0z" style="stroke-width:2.33"/>
	<path id="path16" class="st2" d="m216.6 863.3h9v2.4h-11.8v-20.8h2.8z" style="stroke-width:2.33"/>
	<path id="path17" class="st2" d="m253.1 844.9v2.3h-10v6.9h8.1v2.2h-8.1v7.1h10v2.3h-12.8v-20.8z" style="stroke-width:2.33"/>
	<path id="path18" class="st2" d="m285.8 865.6h-2.2c-0.3 0-0.5-0.1-0.6-0.2-0.2-0.1-0.3-0.3-0.3-0.5l-1.9-5h-9.3l-1.9 5c-0.1 0.2-0.2 0.3-0.3 0.5-0.2 0.1-0.4 0.2-0.6 0.2h-2.2l8.3-20.8h2.9zm-13.6-7.7h7.8l-3.3-8.5c-0.2-0.5-0.4-1.2-0.6-2-0.1 0.4-0.2 0.8-0.3 1.1l-0.3 0.9z" style="stroke-width:2.33"/>
	<path id="path19" class="st2" d="m310.7 848.1c-0.1 0.1-0.2 0.3-0.3 0.3s-0.2 0.1-0.4 0.1-0.4-0.1-0.6-0.2c-0.2-0.2-0.5-0.3-0.8-0.5s-0.7-0.4-1.2-0.5c-0.5-0.2-1-0.2-1.7-0.2-0.6 0-1.2 0.1-1.7 0.3s-0.9 0.4-1.2 0.7-0.6 0.6-0.7 1c-0.2 0.4-0.2 0.8-0.2 1.3 0 0.6 0.1 1.1 0.4 1.4s0.7 0.7 1.1 1c0.5 0.3 1 0.5 1.6 0.7l1.8 0.6c0.6 0.2 1.2 0.5 1.8 0.7 0.6 0.3 1.1 0.6 1.6 1s0.8 0.9 1.1 1.5 0.4 1.3 0.4 2.2-0.2 1.8-0.5 2.6-0.8 1.5-1.4 2.1-1.3 1.1-2.2 1.4-1.8 0.5-3 0.5c-1.3 0-2.6-0.2-3.7-0.7s-2.1-1.1-2.8-2l0.8-1.3 0.3-0.3c0.1-0.1 0.2-0.1 0.4-0.1s0.4 0.1 0.7 0.3 0.6 0.5 1 0.7 0.9 0.5 1.4 0.7 1.2 0.3 2 0.3c0.7 0 1.3-0.1 1.8-0.3s1-0.4 1.3-0.8c0.4-0.3 0.6-0.7 0.8-1.2s0.3-1 0.3-1.6-0.1-1.1-0.4-1.5-0.7-0.7-1.1-1-1-0.5-1.6-0.7l-1.8-0.6c-0.6-0.2-1.2-0.4-1.8-0.7s-1.1-0.6-1.6-1-0.8-0.9-1.1-1.6c-0.3-0.6-0.4-1.4-0.4-2.3 0-0.7 0.1-1.4 0.4-2.1s0.7-1.3 1.2-1.8 1.2-1 2-1.3 1.7-0.5 2.7-0.5c1.2 0 2.2 0.2 3.2 0.6s1.8 0.9 2.5 1.6z" style="stroke-width:2.33"/>
	<path id="path20" class="st2" d="m343.9 865.6h-2.9v-9.5h-11.2v9.5h-2.8v-20.8h2.8v9.3h11.2v-9.3h2.8v20.8z" style="stroke-width:2.33"/>
	<path id="path21" class="st2" d="m359.3 864c0-0.3 0-0.5 0.1-0.7s0.2-0.4 0.4-0.6 0.3-0.3 0.6-0.4c0.2-0.1 0.5-0.1 0.7-0.1 0.3 0 0.5 0 0.7 0.1s0.4 0.2 0.6 0.4 0.3 0.4 0.4 0.6 0.1 0.5 0.1 0.7c0 0.3 0 0.5-0.1 0.7s-0.2 0.4-0.4 0.6-0.4 0.3-0.6 0.4-0.5 0.1-0.7 0.1c-0.3 0-0.5 0-0.7-0.1s-0.4-0.2-0.6-0.4-0.3-0.4-0.4-0.6-0.1-0.4-0.1-0.7z" style="stroke-width:2.33"/>
	<path id="path22" class="st2" d="m413.5 855.3c0 1.6-0.2 3-0.7 4.2-0.5 1.3-1.2 2.4-2.1 3.3s-2 1.6-3.2 2.1c-1.3 0.5-2.6 0.7-4.2 0.7h-7.8v-20.8h7.8c1.5 0 2.9 0.2 4.2 0.7s2.3 1.2 3.2 2.1 1.6 2 2.1 3.3c0.5 1.4 0.7 2.8 0.7 4.4zm-2.9 0c0-1.3-0.2-2.4-0.5-3.4s-0.8-1.9-1.5-2.6c-0.6-0.7-1.4-1.2-2.3-1.6s-1.9-0.6-3-0.6h-4.9v16.2h4.9c1.1 0 2.1-0.2 3-0.6s1.7-0.9 2.3-1.6 1.1-1.5 1.5-2.5c0.3-0.9 0.5-2.1 0.5-3.3z" style="stroke-width:2.33"/>
	<path id="path23" class="st2" d="m432.3 865.6h-2.8v-20.8h2.8z" style="stroke-width:2.33"/>
	<path id="path24" class="st2" d="m460.1 848.1c-0.1 0.1-0.2 0.3-0.3 0.3s-0.2 0.1-0.4 0.1-0.4-0.1-0.6-0.2c-0.2-0.2-0.5-0.3-0.8-0.5s-0.7-0.4-1.2-0.5c-0.5-0.2-1-0.2-1.7-0.2-0.6 0-1.2 0.1-1.7 0.3s-0.9 0.4-1.2 0.7-0.6 0.6-0.7 1c-0.2 0.4-0.2 0.8-0.2 1.3 0 0.6 0.1 1.1 0.4 1.4s0.7 0.7 1.1 1c0.5 0.3 1 0.5 1.6 0.7l1.8 0.6c0.6 0.2 1.2 0.5 1.8 0.7 0.6 0.3 1.1 0.6 1.6 1s0.8 0.9 1.1 1.5 0.4 1.3 0.4 2.2-0.2 1.8-0.5 2.6-0.8 1.5-1.4 2.1-1.3 1.1-2.2 1.4-1.8 0.5-3 0.5c-1.3 0-2.6-0.2-3.7-0.7s-2.1-1.1-2.8-2l0.8-1.3 0.3-0.3c0.1-0.1 0.2-0.1 0.4-0.1s0.4 0.1 0.7 0.3 0.6 0.5 1 0.7 0.9 0.5 1.4 0.7 1.2 0.3 2 0.3c0.7 0 1.3-0.1 1.8-0.3s1-0.4 1.3-0.8c0.4-0.3 0.6-0.7 0.8-1.2s0.3-1 0.3-1.6-0.1-1.1-0.4-1.5-0.7-0.7-1.1-1-1-0.5-1.6-0.7l-1.8-0.6c-0.6-0.2-1.2-0.4-1.8-0.7s-1.1-0.6-1.6-1-0.8-0.9-1.1-1.6c-0.3-0.6-0.4-1.4-0.4-2.3 0-0.7 0.1-1.4 0.4-2.1s0.7-1.3 1.2-1.8 1.2-1 2-1.3 1.7-0.5 2.7-0.5c1.2 0 2.2 0.2 3.2 0.6s1.8 0.9 2.5 1.6z" style="stroke-width:2.33"/>
	<path id="path25" class="st2" d="m491 861.3c0.2 0 0.3 0.1 0.4 0.2l1.1 1.2c-0.9 1-1.9 1.8-3.1 2.3s-2.7 0.8-4.4 0.8c-1.5 0-2.9-0.3-4.1-0.8s-2.3-1.2-3.1-2.2-1.5-2.1-2-3.4-0.7-2.7-0.7-4.3 0.3-3 0.8-4.3 1.2-2.4 2.1-3.4c0.9-0.9 2-1.7 3.3-2.2s2.7-0.8 4.2-0.8 2.8 0.2 4 0.7c1.1 0.5 2.1 1.1 3 1.9l-0.9 1.3c-0.1 0.1-0.1 0.2-0.2 0.2-0.1 0.1-0.2 0.1-0.4 0.1-0.1 0-0.3 0-0.4-0.1s-0.3-0.2-0.5-0.3-0.4-0.3-0.7-0.4c-0.3-0.2-0.6-0.3-0.9-0.4l-1.2-0.3c-0.4-0.1-1-0.1-1.6-0.1-1.1 0-2.1 0.2-3.1 0.6-0.9 0.4-1.7 0.9-2.4 1.6s-1.2 1.6-1.6 2.6-0.6 2.2-0.6 3.4c0 1.3 0.2 2.5 0.6 3.5s0.9 1.9 1.5 2.6 1.4 1.2 2.3 1.6 1.8 0.6 2.8 0.6c0.6 0 1.2 0 1.7-0.1s1-0.2 1.4-0.3l1.2-0.6c0.4-0.2 0.7-0.5 1.1-0.8 0.1-0.3 0.3-0.4 0.4-0.4z" style="stroke-width:2.33"/>
	<path id="path26" class="st2" d="m527.2 855.3c0 1.6-0.2 3-0.7 4.3s-1.2 2.4-2.1 3.4-2 1.7-3.2 2.2c-1.3 0.5-2.7 0.8-4.2 0.8s-2.9-0.3-4.2-0.8-2.3-1.2-3.2-2.2c-0.9-0.9-1.6-2.1-2.1-3.4s-0.7-2.7-0.7-4.3 0.2-3 0.7-4.3 1.2-2.4 2.1-3.4c0.9-0.9 2-1.7 3.2-2.2 1.3-0.5 2.6-0.8 4.2-0.8s2.9 0.3 4.2 0.8 2.3 1.3 3.2 2.2 1.6 2.1 2.1 3.4c0.4 1.3 0.7 2.7 0.7 4.3zm-2.9 0c0-1.3-0.2-2.4-0.5-3.4s-0.8-1.9-1.5-2.6c-0.6-0.7-1.4-1.2-2.3-1.6s-1.9-0.6-3-0.6-2.1 0.2-3 0.6-1.7 0.9-2.3 1.6-1.1 1.6-1.5 2.6c-0.3 1-0.5 2.2-0.5 3.4 0 1.3 0.2 2.4 0.5 3.4s0.8 1.9 1.5 2.6c0.6 0.7 1.4 1.2 2.3 1.6s1.9 0.6 3 0.6 2.1-0.2 3-0.6 1.7-0.9 2.3-1.6 1.1-1.6 1.5-2.6c0.3-1 0.5-2.2 0.5-3.4z" style="stroke-width:2.33"/>
	<path id="path27" class="st2" d="m539.4 844.9h2.2c0.3 0 0.5 0.1 0.6 0.2 0.2 0.1 0.3 0.3 0.3 0.5l5.9 14.7c0.1 0.3 0.3 0.7 0.4 1.1l0.3 1.2 0.3-1.2c0.1-0.4 0.2-0.7 0.4-1.1l5.8-14.7c0.1-0.2 0.2-0.3 0.3-0.5 0.2-0.1 0.4-0.2 0.6-0.2h2.3l-8.5 20.8h-2.5z" style="stroke-width:2.33"/>
	<path id="path28" class="st2" d="m586 844.9v2.3h-10v6.9h8.1v2.2h-8.1v7.1h10v2.3h-12.8v-20.8z" style="stroke-width:2.33"/>
	<path id="path29" class="st2" d="m604.7 857v8.7h-2.8v-20.8h5.9c1.3 0 2.4 0.1 3.4 0.4s1.7 0.7 2.4 1.2c0.6 0.5 1.1 1.1 1.4 1.8s0.4 1.5 0.4 2.4c0 0.7-0.1 1.4-0.3 2.1s-0.6 1.2-1 1.7-1 0.9-1.6 1.3-1.4 0.6-2.2 0.8c0.3 0.2 0.7 0.5 0.9 0.9l6.1 8.3h-2.5c-0.5 0-0.9-0.2-1.1-0.6l-5.4-7.4c-0.2-0.2-0.3-0.4-0.5-0.5s-0.5-0.2-0.9-0.2h-2.2zm0-2.1h2.9c0.8 0 1.5-0.1 2.2-0.3s1.1-0.5 1.6-0.8c0.4-0.4 0.7-0.8 0.9-1.3s0.3-1.1 0.3-1.7c0-1.2-0.4-2.2-1.2-2.8s-2-0.9-3.6-0.9h-3.1z" style="stroke-width:2.33"/>
	<path id="path30" class="st2" d="m630.7 864c0-0.3 0-0.5 0.1-0.7s0.2-0.4 0.4-0.6 0.3-0.3 0.6-0.4c0.2-0.1 0.5-0.1 0.7-0.1s0.5 0 0.7 0.1 0.4 0.2 0.6 0.4 0.3 0.4 0.4 0.6 0.1 0.5 0.1 0.7c0 0.3 0 0.5-0.1 0.7s-0.2 0.4-0.4 0.6-0.4 0.3-0.6 0.4-0.5 0.1-0.7 0.1-0.5 0-0.7-0.1-0.4-0.2-0.6-0.4-0.3-0.4-0.4-0.6-0.1-0.4-0.1-0.7z" style="stroke-width:2.33"/>
	<path id="path31" class="st2" d="m679.6 844.9v2.3h-10v6.9h8.1v2.2h-8.1v7.1h10v2.3h-12.8v-20.8z" style="stroke-width:2.33"/>
	<path id="path32" class="st2" d="m692.9 844.9h2.2c0.3 0 0.5 0.1 0.6 0.2s0.3 0.3 0.3 0.5l5.9 14.7c0.1 0.3 0.3 0.7 0.4 1.1l0.3 1.2 0.3-1.2c0.1-0.4 0.2-0.7 0.4-1.1l5.8-14.7c0.1-0.2 0.2-0.3 0.3-0.5 0.2-0.1 0.4-0.2 0.6-0.2h2.3l-8.5 20.8h-2.5z" style="stroke-width:2.33"/>
	<path id="path33" class="st2" d="m745.2 855.3c0 1.6-0.2 3-0.7 4.3s-1.2 2.4-2.1 3.4c-0.9 0.9-2 1.7-3.2 2.2-1.3 0.5-2.7 0.8-4.2 0.8s-2.9-0.3-4.2-0.8-2.3-1.2-3.2-2.2-1.6-2.1-2.1-3.4-0.7-2.7-0.7-4.3 0.2-3 0.7-4.3 1.2-2.4 2.1-3.4c0.9-0.9 2-1.7 3.2-2.2 1.3-0.5 2.7-0.8 4.2-0.8s2.9 0.3 4.2 0.8 2.3 1.3 3.2 2.2 1.6 2.1 2.1 3.4c0.4 1.3 0.7 2.7 0.7 4.3zm-2.9 0c0-1.3-0.2-2.4-0.5-3.4s-0.8-1.9-1.5-2.6c-0.6-0.7-1.4-1.2-2.3-1.6s-1.9-0.6-3-0.6-2.1 0.2-3 0.6-1.7 0.9-2.3 1.6-1.1 1.6-1.5 2.6c-0.3 1-0.5 2.2-0.5 3.4 0 1.3 0.2 2.4 0.5 3.4s0.8 1.9 1.5 2.6c0.6 0.7 1.4 1.2 2.3 1.6s1.9 0.6 3 0.6 2.1-0.2 3-0.6 1.7-0.9 2.3-1.6 1.1-1.6 1.5-2.6c0.3-1 0.5-2.2 0.5-3.4z" style="stroke-width:2.33"/>
	<path id="path34" class="st2" d="m763.4 863.3h9v2.4h-11.8v-20.8h2.8z" style="stroke-width:2.33"/>
	<path id="path35" class="st2" d="m782.1 844.9h2.2c0.3 0 0.5 0.1 0.6 0.2s0.3 0.3 0.3 0.5l5.9 14.7c0.1 0.3 0.3 0.7 0.4 1.1l0.3 1.2 0.3-1.2c0.1-0.4 0.2-0.7 0.4-1.1l5.8-14.7c0.1-0.2 0.2-0.3 0.3-0.5 0.2-0.1 0.4-0.2 0.6-0.2h2.3l-8.5 20.8h-2.5z" style="stroke-width:2.33"/>
	<path id="path36" class="st2" d="m828.6 844.9v2.3h-10v6.9h8.1v2.2h-8.1v7.1h10v2.3h-12.8v-20.8z" style="stroke-width:2.33"/>
	<path id="path37" class="st2" d="m843 864c0-0.3 0-0.5 0.1-0.7s0.2-0.4 0.4-0.6 0.3-0.3 0.6-0.4c0.2-0.1 0.5-0.1 0.7-0.1s0.5 0 0.7 0.1 0.4 0.2 0.6 0.4 0.3 0.4 0.4 0.6 0.1 0.5 0.1 0.7c0 0.3 0 0.5-0.1 0.7s-0.2 0.4-0.4 0.6-0.4 0.3-0.6 0.4-0.5 0.1-0.7 0.1c-0.3 0-0.5 0-0.7-0.1s-0.4-0.2-0.6-0.4-0.3-0.4-0.4-0.6-0.1-0.4-0.1-0.7z" style="stroke-width:2.33"/>
</g></g>
</svg>
